<svg width="578" height="719" fill="none" xmlns="http://www.w3.org/2000/svg"><path d="M0 10.824V320l332.5 87.5L432 320c-55-69-181.3-99.676-216.5-217.676C180.3-15.676 57.167-7.843 0 10.824z" fill="#E5A73A"/><path d="M-167.5 675.5L-40 300.999 430 320.5l78 229.999C422 671 279 480 225.5 637c-48.061 141.039-335.833 61.404-393 38.5z" fill="#E5A73A"/><path d="M508 550.5l-228-12L55.405 366.504 182.82 194.046c83.902 4.268 45.932 91.007 176.679 84.955C455.319 274.567 568 443.499 508 550.5z" fill="#E5A73A"/></svg>